<?xml version="1.0" standalone="no"?>
<!DOCTYPE svg PUBLIC "-//W3C//DTD SVG 20010904//EN"
 "http://www.w3.org/TR/2001/REC-SVG-20010904/DTD/svg10.dtd">
<svg version="1.0" xmlns="http://www.w3.org/2000/svg"
 width="180.000000pt" height="50.000000pt" viewBox="0 0 180.000000 50.000000"
 preserveAspectRatio="xMidYMid meet">
<metadata>
Created by potrace 1.10, written by Peter Selinger 2001-2011
</metadata>
<g transform="translate(0.000000,50.000000) scale(0.100000,-0.100000)"
fill="#000000" stroke="none">
<path d="M72 307 c-31 -33 -29 -80 4 -106 31 -25 53 -26 80 -7 24 18 13 31
-15 16 -49 -26 -93 43 -53 83 18 18 25 19 47 9 20 -9 25 -9 25 2 0 32 -59 34
-88 3z"/>
<path d="M213 315 c-29 -20 -37 -59 -18 -95 33 -63 117 -41 123 33 5 63 -54
98 -105 62z m71 -21 c23 -22 20 -60 -6 -78 -28 -20 -33 -20 -52 0 -22 21 -20
70 2 83 24 15 38 13 56 -5z"/>
<path d="M340 275 c0 -83 45 -120 90 -75 26 26 30 130 5 130 -12 0 -15 -13
-15 -59 0 -64 -16 -83 -46 -54 -12 13 -15 27 -10 65 6 39 4 48 -9 48 -12 0
-15 -12 -15 -55z"/>
<path d="M493 315 c-29 -20 -37 -59 -18 -95 19 -37 56 -48 90 -26 32 21 35 66
5 66 -22 0 -27 -16 -7 -23 9 -3 7 -9 -5 -23 -14 -15 -21 -16 -43 -6 -20 9 -25
19 -25 47 0 28 5 38 25 47 18 8 28 8 39 -1 11 -9 16 -9 21 0 17 27 -47 39 -82
14z"/>
<path d="M635 268 c-15 -35 -29 -69 -32 -75 -3 -7 2 -13 10 -13 8 0 18 11 21
25 5 20 13 25 36 25 23 0 33 -6 40 -25 9 -22 30 -35 30 -18 0 20 -57 143 -66
143 -6 0 -24 -28 -39 -62z"/>
<path d="M760 255 c0 -43 4 -75 10 -75 6 0 10 16 10 35 0 45 11 44 48 -2 35
-44 55 -39 23 5 -18 26 -19 31 -6 42 34 28 3 70 -51 70 l-34 0 0 -75z m70 40
c10 -12 10 -16 -1 -19 -8 -2 -22 -7 -31 -10 -14 -4 -18 0 -18 19 0 29 30 35
50 10z"/>
<path d="M962 310 c-32 -30 -30 -82 4 -109 31 -25 53 -26 80 -7 26 19 13 30
-20 15 -22 -10 -29 -9 -46 6 -42 38 -13 102 41 90 30 -7 41 8 13 19 -28 11
-50 6 -72 -14z"/>
<path d="M1080 255 c0 -43 4 -75 10 -75 6 0 10 16 10 35 0 45 11 44 48 -2 17
-21 33 -35 37 -31 4 4 -2 19 -14 34 -19 24 -20 29 -6 44 8 9 15 22 15 28 0 21
-32 42 -66 42 l-34 0 0 -75z m70 40 c10 -12 10 -16 -1 -19 -8 -2 -22 -7 -31
-10 -14 -4 -18 0 -18 19 0 29 30 35 50 10z"/>
<path d="M1210 272 c0 -44 5 -63 18 -75 23 -21 46 -22 66 -1 18 18 23 134 6
134 -5 0 -10 -24 -10 -54 0 -35 -5 -58 -15 -66 -26 -22 -45 5 -45 66 0 30 -4
54 -10 54 -6 0 -10 -26 -10 -58z"/>
<path d="M1345 255 c0 -64 3 -75 17 -75 20 0 32 16 18 25 -13 8 -13 105 1 105
5 0 7 5 4 10 -3 6 -14 10 -23 10 -14 0 -17 -11 -17 -75z"/>
<path d="M1420 315 c-19 -23 -7 -49 33 -68 20 -9 37 -21 37 -26 0 -15 -30 -22
-50 -11 -12 6 -21 7 -25 1 -9 -15 34 -33 60 -27 25 6 41 38 29 57 -3 6 -22 18
-41 25 -42 18 -38 40 6 36 32 -2 42 11 15 22 -26 10 -51 7 -64 -9z"/>
<path d="M1530 255 l0 -75 46 0 c32 0 44 4 41 13 -2 6 -18 11 -36 11 -26 -2
-31 1 -31 22 0 20 5 24 30 24 17 0 30 5 30 10 0 6 -13 10 -30 10 -23 0 -30 4
-30 20 0 16 7 20 35 20 19 0 35 5 35 10 0 6 -20 10 -45 10 l-45 0 0 -75z"/>
<path d="M1640 255 c0 -43 4 -75 10 -75 6 0 10 16 10 35 0 45 18 45 48 0 12
-19 29 -35 38 -35 13 0 11 7 -10 34 -22 29 -23 36 -11 46 37 30 6 70 -54 70
l-31 0 0 -75z m75 35 c0 -9 -11 -16 -27 -18 -23 -3 -28 1 -28 18 0 17 5 21 28
18 16 -2 27 -9 27 -18z"/>
</g>
</svg>
