<?xml version="1.0" standalone="no"?>
<!DOCTYPE svg PUBLIC "-//W3C//DTD SVG 20010904//EN"
 "http://www.w3.org/TR/2001/REC-SVG-20010904/DTD/svg10.dtd">
<svg version="1.0" xmlns="http://www.w3.org/2000/svg"
 width="180.000000pt" height="50.000000pt" viewBox="0 0 180.000000 50.000000"
 preserveAspectRatio="xMidYMid meet">
<metadata>
Created by potrace 1.10, written by Peter Selinger 2001-2011
</metadata>
<g transform="translate(0.000000,50.000000) scale(0.100000,-0.100000)"
fill="#ffffff" stroke="none">
<path d="M78 351 c-47 -23 -73 -80 -58 -126 18 -54 55 -78 110 -71 55 7 54 7
113 0 31 -4 53 -2 62 6 12 10 21 10 45 0 17 -7 44 -10 62 -6 18 4 40 6 48 6
118 -9 167 -6 192 8 25 15 29 14 46 -1 21 -19 72 -23 89 -6 9 9 20 9 43 -1 27
-11 33 -10 50 5 11 10 20 25 20 33 0 9 12 3 36 -17 32 -29 41 -31 97 -30 34 2
68 7 74 12 7 5 21 6 30 1 14 -6 162 -12 323 -14 142 -1 193 1 209 10 14 7 27
7 45 -2 22 -9 29 -8 45 7 29 25 19 139 -14 174 -22 22 -31 24 -117 23 -51 -1
-102 -2 -113 -3 -11 -1 -31 -1 -45 0 -89 4 -175 0 -186 -10 -8 -6 -22 -8 -31
-4 -29 12 -115 18 -193 15 -11 -1 -36 0 -56 0 -28 2 -43 -5 -69 -30 l-34 -33
-25 30 c-33 39 -87 51 -122 28 -21 -14 -30 -14 -59 -4 -31 12 -37 11 -58 -9
l-24 -22 -26 20 c-15 12 -35 21 -44 21 -56 -1 -120 -9 -136 -16 -10 -4 -23 -2
-32 5 -8 6 -23 9 -35 5 -11 -3 -36 -1 -54 5 -28 9 -42 8 -72 -5 -21 -9 -41
-12 -48 -7 -23 18 -56 19 -88 3z m81 -34 c16 -20 3 -27 -26 -14 -22 10 -28 8
-44 -12 -11 -13 -19 -29 -19 -37 0 -21 40 -56 56 -50 8 3 21 9 30 13 12 4 15
2 12 -8 -3 -8 -17 -18 -31 -23 -64 -23 -114 69 -66 120 25 26 70 32 88 11z
m126 7 c10 -4 23 -21 30 -37 36 -86 -77 -149 -120 -67 -21 40 -19 57 10 85 24
25 49 31 80 19z m85 -53 c0 -58 9 -74 38 -64 8 3 12 25 12 64 0 46 3 59 15 59
11 0 15 -13 15 -53 0 -61 -20 -97 -55 -97 -35 0 -55 36 -55 97 0 40 4 53 15
53 12 0 15 -13 15 -59z m199 50 c7 -5 10 -14 6 -20 -5 -9 -10 -9 -21 0 -24 20
-64 -4 -64 -38 0 -44 16 -58 58 -54 14 1 17 31 2 31 -5 0 -10 5 -10 10 0 6 11
10 25 10 30 0 35 -33 8 -62 -38 -42 -107 -6 -107 57 0 57 58 94 103 66z m144
-59 c15 -37 27 -70 27 -74 0 -18 -21 -6 -30 17 -7 19 -17 25 -39 25 -22 0 -30
-5 -35 -25 -4 -14 -13 -25 -21 -25 -19 0 -19 -2 8 61 13 30 27 62 30 72 12 33
32 16 60 -51z m131 52 c20 -20 20 -38 1 -54 -13 -11 -12 -17 10 -46 20 -26 22
-34 11 -34 -8 0 -27 16 -42 35 -14 19 -30 35 -35 35 -5 0 -9 -16 -9 -35 0 -19
-4 -35 -10 -35 -6 0 -10 32 -10 75 l0 75 34 0 c19 0 42 -7 50 -16z m190 10 c9
-3 16 -12 16 -20 0 -11 -5 -11 -25 -2 -53 24 -90 -55 -41 -87 20 -14 28 -14
45 -3 26 16 42 1 17 -18 -60 -43 -136 29 -101 96 19 37 50 49 89 34z m130 -10
c20 -20 20 -38 1 -54 -13 -11 -12 -17 10 -46 20 -26 22 -34 11 -34 -8 0 -27
16 -42 35 -14 19 -30 35 -35 35 -5 0 -9 -16 -9 -35 0 -19 -4 -35 -10 -35 -6 0
-10 32 -10 75 l0 75 34 0 c19 0 42 -7 50 -16z m66 -39 c0 -43 4 -56 18 -64 29
-15 42 6 42 66 0 38 4 53 14 53 10 0 12 -12 9 -47 -7 -81 -12 -92 -39 -99 -42
-11 -64 19 -64 88 0 32 4 58 10 58 6 0 10 -25 10 -55z m160 46 c0 -6 -4 -12
-9 -15 -9 -6 -7 -93 3 -103 13 -13 5 -23 -16 -23 -22 0 -23 4 -23 75 0 71 1
75 23 75 12 0 22 -4 22 -9z m94 3 c28 -11 17 -24 -16 -22 -24 2 -33 -1 -33
-12 0 -8 9 -16 20 -18 25 -5 55 -31 55 -48 0 -37 -66 -58 -90 -29 -18 21 -6
29 20 15 18 -10 25 -9 38 3 13 14 11 17 -24 34 -41 19 -53 45 -34 68 13 16 38
19 64 9z m136 -4 c0 -5 -16 -10 -35 -10 -28 0 -35 -4 -35 -20 0 -16 7 -20 30
-20 17 0 30 -4 30 -10 0 -5 -13 -10 -30 -10 -23 0 -30 -4 -30 -20 0 -16 7 -20
35 -20 24 0 35 -5 35 -15 0 -11 -12 -15 -45 -15 l-45 0 0 75 0 75 45 0 c25 0
45 -4 45 -10z m108 -2 c16 -16 15 -43 -3 -58 -12 -10 -11 -17 11 -46 20 -25
23 -34 11 -34 -8 0 -27 16 -41 35 -15 19 -31 35 -37 35 -5 0 -9 -16 -9 -35 0
-19 -4 -35 -10 -35 -6 0 -10 32 -10 75 l0 75 38 0 c21 0 43 -5 50 -12z"/>
<path d="M225 294 c-21 -21 -16 -63 10 -80 45 -29 88 42 49 80 -20 20 -38 20
-59 0z"/>
<path d="M661 271 c-10 -18 -9 -21 9 -21 22 0 25 7 11 29 -7 11 -11 9 -20 -8z"/>
<path d="M780 291 c0 -16 6 -21 26 -21 33 0 30 33 -4 38 -17 3 -22 -2 -22 -17z"/>
<path d="M1100 291 c0 -16 6 -21 26 -21 33 0 30 33 -4 38 -17 3 -22 -2 -22
-17z"/>
<path d="M1660 290 c0 -17 5 -21 28 -18 16 2 27 9 27 18 0 9 -11 16 -27 18
-23 3 -28 -1 -28 -18z"/>
</g>
</svg>
